<?xml version="1.0" encoding="UTF-8" standalone="no"?>
<svg
   xmlns:dc="http://purl.org/dc/elements/1.1/"
   xmlns:cc="http://creativecommons.org/ns#"
   xmlns:rdf="http://www.w3.org/1999/02/22-rdf-syntax-ns#"
   xmlns:svg="http://www.w3.org/2000/svg"
   xmlns="http://www.w3.org/2000/svg"
   xmlns:sodipodi="http://sodipodi.sourceforge.net/DTD/sodipodi-0.dtd"
   xmlns:inkscape="http://www.inkscape.org/namespaces/inkscape"
   width="346.737mm"
   height="112.522mm"
   viewBox="0 0 983 319"
   version="1.1"
   id="svg3154"
   sodipodi:docname="simplySass Logo2.svg"
   inkscape:version="1.0.2 (1.0.2+r75+1)">
  <metadata
     id="metadata3160">
    <rdf:RDF>
      <cc:Work
         rdf:about="">
        <dc:format>image/svg+xml</dc:format>
        <dc:type
           rdf:resource="http://purl.org/dc/dcmitype/StillImage" />
        <dc:title></dc:title>
      </cc:Work>
    </rdf:RDF>
  </metadata>
  <defs
     id="defs3158" />
  <sodipodi:namedview
     pagecolor="#ffffff"
     bordercolor="#666666"
     borderopacity="1"
     objecttolerance="10"
     gridtolerance="10"
     guidetolerance="10"
     inkscape:pageopacity="0"
     inkscape:pageshadow="2"
     inkscape:window-width="1920"
     inkscape:window-height="1012"
     id="namedview3156"
     showgrid="false"
     inkscape:zoom="0.64532498"
     inkscape:cx="831.24574"
     inkscape:cy="344.68888"
     inkscape:window-x="1920"
     inkscape:window-y="32"
     inkscape:window-maximized="1"
     inkscape:current-layer="svg3154" />
  <path
     id="Selection"
     fill="none"
     stroke="#000000"
     stroke-width="1.25257"
     d="m 351.79525,195.84817 c 23.55306,-5.41641 34.98911,-15.77429 51.66176,-34.74183 4.93135,-5.61851 9.62788,-10.65092 13.44379,-17.37091 l 13.39684,-33.40794 22.48461,-50.778843 C 463.41988,38.822794 482.67561,3.1310754 505.6064,0.75634329 L 480.94964,39.50995 c -13.8195,23.737216 -36.24543,69.9485 -45.55627,96.20192 -3.74547,10.55998 -9.44002,24.71742 -9.56917,36.07571 -0.0704,6.58862 2.37174,13.82398 9.33434,12.76292 6.31683,-0.94989 15.48679,-10.48924 19.96022,-15.4408 5.40101,-6.00252 14.72361,-16.87576 18.53953,-24.04037 l 14.05435,-34.74184 c 7.56139,-17.502278 10.98985,-30.507725 30.80919,-30.740146 -0.54011,10.933873 -4.84917,16.03702 -9.08777,25.394476 l -21.60401,49.43485 c -2.53612,6.60883 -7.81971,24.02016 -2.66527,30.11362 6.35205,7.51831 19.45535,-11.73218 23.02469,-16.74438 10.13275,-14.2686 23.03646,-35.89382 30.55089,-52.11274 2.91184,-6.28546 5.24837,-12.05556 7.46747,-18.714913 0.84537,-2.546521 2.25433,-8.084195 3.82766,-9.882928 3.52241,-4.031992 10.6024,-0.747788 11.01335,5.881251 0.21134,3.375152 -5.67104,23.83827 -7.08,28.06227 l -8.06628,25.38436 -14.46531,40.08751 26.95806,-24.42438 9.96888,-10.5944 c 2.25639,-2.62658 4.31375,-0.41082 5.63546,-0.69406 7.61045,-0.89709 10.37917,3.87121 17.31828,11.66236 12.37535,13.8947 25.18511,31.87193 44.61697,29.15362 5.67106,-0.79831 11.18947,-4.02189 14.75883,-9.16546 7.98408,-11.48965 -0.98628,-22.26184 -8.88817,-29.32541 -17.76459,-15.86523 -43.12582,-25.97047 -43.44283,-56.144733 -0.38746,-37.258031 22.98947,-68.159864 52.83588,-80.942997 13.96041,-5.972198 33.72103,-10.8530308 43.2902,6.123777 2.05473,3.658099 3.27581,7.801248 4.06249,12.025239 5.28359,28.072366 -19.20878,40.218867 -20.34769,66.805764 -7.00955,-3.25389 -9.16996,-5.850937 -9.36956,-14.693025 -0.32876,-14.167551 5.57712,-21.180589 12.38707,-32.074041 1.70251,-2.708206 3.93335,-6.386514 5.21315,-9.357455 3.74547,-8.720826 3.89812,-21.827326 -7.05652,-23.019744 -9.88618,-1.081261 -24.21059,8.660193 -31.70154,15.390285 -7.17392,6.447145 -13.30291,12.742711 -18.91524,20.998695 -4.00379,5.881251 -7.96061,11.863555 -10.59066,18.704805 -2.13691,5.598304 -3.6398,11.19661 -3.25235,17.370912 1.26807,20.897648 25.72521,33.579718 38.62891,44.978438 8.48896,7.5082 16.01514,15.14776 15.04062,28.517 -2.06648,28.40584 -33.23867,32.67946 -45.56804,32.06393 -13.87511,-1.41528 -42.62193,-25.20381 -56.35826,-41.42139 -4.5204,10.87324 -18.18728,22.66606 -27.00501,29.39616 -3.5224,2.68799 -10.90768,7.62945 -13.33813,10.97429 -2.677,3.64799 -8.32459,19.70522 -10.50846,25.10142 -8.25414,20.46312 -21.43963,50.83948 -34.90692,66.81587 -8.99383,10.68124 -18.21076,18.33092 -31.65456,18.6947 -2.82966,0.10105 -6.71602,0.11115 -9.39304,-0.85894 -12.99762,-4.65852 -11.87048,-23.56543 -7.90191,-35.20667 2.07822,-6.12378 5.55365,-12.21725 9.09952,-17.37091 10.8255,-15.7945 27.36899,-28.91111 42.24524,-39.52161 l 25.5843,-18.63407 c 5.42448,-5.71957 14.46528,-28.19363 17.68241,-36.71235 2.99402,-7.94272 8.75901,-19.62438 8.39504,-28.06226 -2.27783,8.18525 -7.10351,15.69345 -11.41256,22.71659 -7.18568,11.69176 -16.82529,26.55657 -27.33377,34.40835 -5.98807,4.47663 -17.02491,7.79114 -22.73116,1.09136 -4.05077,-4.72924 -4.77873,-13.18734 -4.42647,-19.4728 v -10.68124 c -10.36759,12.23746 -20.21855,27.46606 -35.0713,33.25636 -12.85673,5.0122 -22.13237,0.384 -22.30849,-15.88545 -0.11741,-11.65134 0.44618,-10.63071 2.34826,-21.38269 l -17.61196,19.64459 c -18.04638,17.59323 -40.70711,28.15321 -64.57719,28.45637 -5.36576,0.10105 -17.6237,-0.31327 -21.43962,-4.94147 -1.52638,-1.83915 -1.58509,-3.45599 -2.04299,-5.74988 -5.53014,6.29557 -9.46351,19.59407 -12.44578,28.06226 l -20.03068,69.48365 c -1.93732,7.08378 -4.08597,19.76585 -7.44399,25.39448 -10.0036,-20.59449 -4.91961,-37.97551 1.17413,-58.80241 10.13275,-34.59025 23.77615,-66.83608 36.39806,-100.2137 l -16.44957,21.15028 c -5.83543,6.13388 -14.35963,13.92502 -22.29674,15.75408 -9.60439,2.23324 -16.10909,-0.86906 -16.41437,-12.85388 -0.8571,-32.97341 26.06573,-58.41841 35.20047,-88.188458 -9.15823,0 -16.29696,10.529668 -22.30851,17.370918 -10.81373,12.31829 -22.91903,28.56752 -31.80719,42.75528 -3.71026,5.92168 -10.13276,19.68501 -14.19524,23.64627 -4.64956,4.49683 -14.97017,5.47704 -13.52599,-7.60925 1.362,-12.22735 8.92339,-26.69805 14.08957,-37.40961 5.57712,-11.55029 15.43981,-26.95068 16.08559,-40.0875 -9.55743,3.476205 -20.46509,16.90608 -27.20462,25.38438 -12.64538,15.91575 -24.91506,32.04372 -36.02234,49.44495 -3.18189,4.99199 -12.72757,23.23195 -15.68638,25.58647 -3.41672,2.6981 -10.41453,2.53642 -15.01713,3.80968 4.16817,-10.9945 14.17176,-29.41636 15.2637,-40.0875 -5.9998,12.73261 -23.84661,32.87236 -36.39806,36.76287 -8.67681,2.69811 -18.51604,1.78863 -22.519822,-8.70061 -3.992046,-9.47871 -0.927565,-20.92795 0,-30.74015 -13.126784,16.53218 -30.809192,43.71528 -51.450412,47.97969 -17.15405,3.53684 -45.69716964,-12.75281 -39.9204461,-35.94434 11.9291681,6.56841 10.8841921,25.47531 22.9894811,26.76878 8.876427,0.97011 14.805789,-13.39954 16.743104,-21.43322 3.710254,-15.33976 6.035033,-40.13802 6.058515,-56.11441 L 52.391901,95.624364 0.73014668,163.77413 C 1.2819882,153.06257 8.1154293,146.40321 13.939118,138.38976 L 46.4508,92.95658 C 52.978967,82.639128 48.341151,76.424403 59.436687,66.976 c 7.385282,-6.295566 17.51803,-7.801247 25.830875,-3.415571 -5.365777,4.446307 -8.970359,4.870727 -12.927179,12.025239 -4.015527,7.26567 -4.673039,17.017229 -4.684782,25.384372 l -1.17413,26.72836 c -0.02349,19.87702 -1.373735,40.30982 -8.218916,58.79232 13.6434,-11.03493 32.828697,-29.63869 41.975175,-45.43318 l 9.99186,-22.71658 11.6591,-22.716596 c 4.29733,-7.720404 7.16221,-10.691347 15.04062,-13.308604 2.13691,-0.707368 6.57514,-2.04126 8.0428,0.747788 1.92557,3.668203 -6.8217,17.098072 -8.81772,20.584382 -8.99384,15.76418 -21.39267,40.51192 -24.80937,58.79231 -1.39723,7.46777 -3.22887,21.72627 6.7982,22.3831 7.97236,0.51537 19.3849,-12.38902 24.65674,-18.37132 5.87066,-6.65936 17.20103,-20.04881 20.81734,-28.06226 l 7.86669,-21.3827 5.53014,-13.35913 c 2.85316,-7.295988 5.29534,-15.339761 11.6239,-19.735542 5.30709,-3.708624 11.61217,-2.981047 17.56501,-2.981047 l -23.1891,49.434849 c -2.93533,6.67957 -7.32656,13.78356 -7.33831,21.38269 7.50271,-16.57259 33.32185,-48.01001 46.96526,-58.499247 7.38527,-5.689252 22.49632,-13.015553 25.16161,2.374731 1.24457,7.215146 -3.13494,15.289236 -6.01154,21.382696 l -12.10529,25.38438 c -3.08798,6.19451 -7.2209,13.03576 -8.21893,20.0488 4.60259,-10.74188 14.35962,-25.69764 21.31048,-34.74184 l 18.60997,-22.70647 c 6.07025,-6.730097 15.16976,-15.087133 23.48261,-17.66397 12.35186,-3.819781 15.80382,7.498091 13.19724,18.98775 -3.99206,17.61344 -24.41019,43.66476 -32.00681,61.4702 -2.45394,5.72967 -6.18768,20.8067 4.72001,17.00712 9.99186,-3.45599 21.8036,-17.59323 28.50788,-26.36458 l 16.15605,-21.38269 10.88419,-22.71658 16.56698,-30.730055 C 353.23944,66.935579 363.93578,49.938561 383.49678,48.8573 l -24.62151,38.753607 -25.02072,46.767063 c -4.33255,8.6703 -14.97017,28.55742 -16.10908,37.40961 3.71024,-8.63998 13.65515,-24.98015 18.76261,-33.39782 10.16797,-16.79492 22.51983,-35.88372 36.42154,-48.828541 10.19144,-9.488824 27.31027,-15.713653 30.84441,4.729253 0.22308,2.930521 0.42269,5.042517 0,8.013458 -1.42069,29.42648 -19.22052,61.8542 -37.8892,81.39774 z M 152.21022,39.377166 c 10.29188,-1.748541 12.12687,14.035105 3.4817,17.816959 -5.10746,2.051365 -9.75998,-1.542491 -9.52219,-8.336825 0.46567,-6.305578 2.91452,-8.671707 6.04049,-9.480134 z m 628.14277,80.297674 c -1.63204,9.78188 -14.79404,33.01383 -19.25574,45.43318 -1.51464,4.22399 -5.1427,12.75282 -3.51065,17.22943 1.90208,4.97179 6.92736,1.93011 9.85096,0 7.73751,-4.83029 17.18927,-14.92544 22.98947,-22.5751 l 32.91089,-45.43317 14.52399,-20.038708 c 7.06828,-10.519558 3.04101,-11.327977 7.49096,-20.028591 6.57514,-12.803342 19.73714,-14.389866 31.27883,-12.04545 -4.43821,8.165037 -10.27362,5.214305 -14.37134,18.71491 -3.49893,11.519978 -3.22886,34.175929 -3.24061,46.767059 l -1.06847,16.03703 c -1.16237,18.9069 -1.63203,24.63658 -7.15045,42.75529 31.27886,-28.43616 32.2299,-32.62984 56.85143,-66.81588 l 19.39663,-26.71826 c 5.49494,-8.650087 2.70049,-13.601656 7.87842,-21.251325 7.03305,-10.378085 20.7821,-12.954922 30.93835,-8.144826 -5.29534,4.395781 -9.15822,5.062727 -13.12679,12.025239 -4.91961,8.629877 -3.89812,17.330492 -4.68479,26.718262 l -0.97452,12.02525 c -0.24655,24.43447 -0.16437,49.07105 -8.21891,72.16154 0,0 26.93752,-23.24978 28.68175,-25.24697 1.13428,-1.24033 14.76108,-18.85231 14.76108,-18.85231 -0.0253,1.00795 -6.45772,13.54102 -11.03682,20.0488 -10.41456,14.80418 -30.42174,37.93507 -47.66971,40.37044 -16.95446,2.37473 -42.53876,-14.37976 -38.74632,-36.35866 13.50251,4.54736 10.82549,25.31363 24.15187,26.78899 9.22867,1.01053 14.40658,-13.36923 16.43784,-21.45343 3.49891,-13.87449 6.35204,-40.31991 6.37553,-54.78052 0.0117,-9.49892 -0.3405,-11.74229 1.17413,-21.382696 -6.56341,5.810516 -11.44778,14.117036 -16.73137,21.382696 -12.64538,17.41133 -36.44502,52.69884 -50.19409,65.80534 -6.05852,5.78021 -13.85475,13.53092 -21.13435,16.91619 -23.98749,11.17639 -52.36624,-11.45935 -48.13937,-33.27657 12.481,4.27452 11.16599,25.8391 24.15188,26.84962 8.98208,0.69727 14.33613,-13.47028 16.42607,-21.51406 5.80022,-22.26185 6.38728,-52.88074 6.38728,-76.163216 l -43.53676,60.136306 c -7.80797,10.69135 -18.26947,24.58605 -28.08521,32.60962 -2.5831,2.112 -6.41076,4.73936 -9.39305,5.96209 -2.34827,0.96 -4.55562,1.39452 -7.04478,1.44505 -20.52381,0.41432 -11.23644,-33.42814 -5.87066,-45.36244 -6.61035,6.97262 -11.40081,19.18986 -23.48262,31.94267 -3.67503,3.88043 -8.39502,8.15494 -12.91543,10.63073 -9.18171,5.0324 -24.70371,6.3663 -29.34152,-6.49767 -0.98628,-2.72842 -1.1037,-5.13347 -1.16239,-8.01347 -0.29355,-11.9747 2.45393,-18.64417 6.52816,-29.39614 9.32259,-24.61638 31.19666,-51.779274 52.15488,-63.996514 11.45952,-6.679565 25.98352,-8.13472 37.5722,-1.061051 3.5576,2.182733 8.34806,5.648831 9.63961,10.266927 1.25632,4.506939 -1.58508,7.083778 -4.50867,5.234516 -3.02925,-1.909891 -4.23862,-8.397456 -9.85096,-11.691766 -8.57115,-5.0122 -19.30271,3.344836 -25.80739,9.145245 -15.73334,14.026083 -33.15745,37.237823 -42.527,57.438203 -2.79444,6.04293 -7.40877,16.1886 -8.52422,22.71659 -0.65749,3.85009 -0.5166,8.57935 3.08798,10.51956 6.12896,3.32463 20.35943,-11.30777 24.48062,-15.87534 10.44977,-11.61092 17.44759,-20.72585 26.71147,-33.38772 9.21694,-12.59114 12.01137,-23.26228 28.47268,-18.71492 z M 382.2757,90.905216 c -8.79425,3.35494 -12.88022,10.630714 -18.82131,18.088384 -11.80003,14.78397 -29.05975,42.7856 -38.13579,60.12621 -3.33452,6.3764 -15.2402,28.91109 -1.679,29.92162 1.35025,0.41431 3.33452,0 4.67304,0 10.21494,-2.63747 17.51803,-9.77178 24.65674,-17.89639 13.11505,-14.92544 22.82511,-33.54941 28.95406,-53.44664 2.39524,-7.82145 5.75326,-18.55322 6.1642,-26.72836 0.29353,-6.002516 0.2231,-10.095139 -5.81194,-10.064824 z m -75.09741,66.189344 h -1.17413 l 1.17413,1.33389 z m 163.20419,2.66779 h -1.17414 l 1.17414,1.34399 z m -250.08987,2.67789 h -1.17412 l 1.17412,1.33389 z m 287.66203,44.08917 c -19.05614,10.5903 -51.00423,41.0374 -63.77878,60.1363 -5.61234,8.37725 -14.70011,26.83953 -4.19164,35.08541 9.01733,7.08377 22.1441,-5.43663 28.00302,-12.36882 10.87245,-12.8943 19.17355,-30.8412 26.17136,-46.76707 3.6046,-8.22566 11.76481,-27.89046 13.79604,-36.08582 z"
     style="fill:#202124;fill-opacity:1;stroke:#202124;stroke-opacity:1"
     sodipodi:nodetypes="ccccccccccccccccccccccccccccccccccccccccccccccccccccccccccccccccccsccccccccccccccccccccccccccccccccccccccccccccccccccccccccccccccccccccccccccccccccccccccccccccccccccccccccccccccccccccccccccccccccccccccccccccccccccccccccccccccccccccccccccccccc" />
</svg>
